REM DIRINDEX 1\8,1\2\11,1\3\12,1\3\14,1\5\15,1\5\16,1\6\17,1\6\18,1\4\19,1\4\20,1\4\21,1\4\22,1\7\23,1\7\24,1\7\25,1\2\9\26,1\2\9\27,1\2\10\28,1\2\10\29,1\2\10\30,1\2\10\31,1\2\10\32,1\3\13\33,1\3\13\34,1\3\13\35
REM DIRNAME folder01,folder02,folder03,folder04,folder05,folder06,folder07,folder08,folder09,folder10,folder11,folder12,folder13,folder14,folder15,folder16,folder17,folder18,folder19,folder20,folder21,folder22,folder23,folder24,folder25,folder26,folder27,folder28,folder29,folder30,folder31,folder32,folder33,folder34,folder35
TITLE ""
FILE "81 081_UNIT2_WARM-UP-40.mp3" MP3
  TRACK 01 AUDIO
    TITLE "14:cjc123_7462"
    INDEX 01 00:00:00
  TRACK 02 AUDIO
    TITLE "0:"
    INDEX 01 00:02:65
  TRACK 03 AUDIO
    TITLE "12:cjc123_7463"
    INDEX 01 00:03:43
  TRACK 04 AUDIO
    TITLE "0:"
    INDEX 01 00:04:44
  TRACK 05 AUDIO
    TITLE "12:cjc123_7464"
    INDEX 01 00:05:20
  TRACK 06 AUDIO
    TITLE "0:"
    INDEX 01 00:06:33
  TRACK 07 AUDIO
    TITLE "12:cjc123_7465"
    INDEX 01 00:07:05
  TRACK 08 AUDIO
    TITLE "0:"
    INDEX 01 00:08:09
  TRACK 09 AUDIO
    TITLE "12:cjc123_7466"
    INDEX 01 00:08:60
  TRACK 10 AUDIO
    TITLE "0:"
    INDEX 01 00:09:65
  TRACK 11 AUDIO
    TITLE "12:cjc123_7467"
    INDEX 01 00:10:47
  TRACK 12 AUDIO
    TITLE "0:"
    INDEX 01 00:11:42
  TRACK 13 AUDIO
    TITLE "12:cjc123_7468"
    INDEX 01 00:12:20
  TRACK 14 AUDIO
    TITLE "0:"
    INDEX 01 00:13:33
  TRACK 15 AUDIO
    TITLE "12:cjc123_7469"
    INDEX 01 00:14:15
  TRACK 16 AUDIO
    TITLE "0:"
    INDEX 01 00:15:13
  TRACK 17 AUDIO
    TITLE "12:cjc123_7470"
    INDEX 01 00:15:66
  TRACK 18 AUDIO
    TITLE "0:"
    INDEX 01 00:16:67
  TRACK 19 AUDIO
    TITLE "12:cjc123_7471"
    INDEX 01 00:17:43
  TRACK 20 AUDIO
    TITLE "0:"
    INDEX 01 00:18:33
  TRACK 21 AUDIO
    TITLE "12:cjc123_7472"
    INDEX 01 00:19:18
  TRACK 22 AUDIO
    TITLE "0:"
    INDEX 01 00:20:26
  TRACK 23 AUDIO
    TITLE "12:cjc123_7473"
    INDEX 01 00:20:73
  TRACK 24 AUDIO
    TITLE "0:"
    INDEX 01 00:21:72
  TRACK 25 AUDIO
    TITLE "12:cjc123_7474"
    INDEX 01 00:22:46
  TRACK 26 AUDIO
    TITLE "0:"
    INDEX 01 00:23:36
  TRACK 27 AUDIO
    TITLE "12:cjc123_7475"
    INDEX 01 00:24:12
  TRACK 28 AUDIO
    TITLE "0:"
    INDEX 01 00:25:11
  TRACK 29 AUDIO
    TITLE "12:cjc123_7476"
    INDEX 01 00:25:64
  TRACK 30 AUDIO
    TITLE "0:"
    INDEX 01 00:27:04
  TRACK 31 AUDIO
    TITLE "12:cjc123_7477"
    INDEX 01 00:27:55
  TRACK 32 AUDIO
    TITLE "0:"
    INDEX 01 00:29:03
  TRACK 33 AUDIO
    TITLE "12:cjc123_7478"
    INDEX 01 00:29:54
  TRACK 34 AUDIO
    TITLE "0:"
    INDEX 01 00:30:59
  TRACK 35 AUDIO
    TITLE "12:cjc123_7479"
    INDEX 01 00:31:31
  TRACK 36 AUDIO
    TITLE "0:"
    INDEX 01 00:32:21
  TRACK 37 AUDIO
    TITLE "12:cjc123_7480"
    INDEX 01 00:32:68
  TRACK 38 AUDIO
    TITLE "0:"
    INDEX 01 00:33:60
  TRACK 39 AUDIO
    TITLE "12:cjc123_7481"
    INDEX 01 00:34:36
  TRACK 40 AUDIO
    TITLE "0:"
    INDEX 01 00:35:31
  TRACK 41 AUDIO
    TITLE "12:cjc123_7482"
    INDEX 01 00:36:05
  TRACK 42 AUDIO
    TITLE "0:"
    INDEX 01 00:37:26
  TRACK 43 AUDIO
    TITLE "12:cjc123_7483"
    INDEX 01 00:38:00
  TRACK 44 AUDIO
    TITLE "0:"
    INDEX 01 00:39:11
  TRACK 45 AUDIO
    TITLE "12:cjc123_7484"
    INDEX 01 00:39:58
  TRACK 46 AUDIO
    TITLE "0:"
    INDEX 01 00:40:62
  TRACK 47 AUDIO
    TITLE "12:cjc123_7485"
    INDEX 01 00:41:40
  TRACK 48 AUDIO
    TITLE "0:"
    INDEX 01 00:42:53
  TRACK 49 AUDIO
    TITLE "12:cjc123_7486"
    INDEX 01 00:43:40
  TRACK 50 AUDIO
    TITLE "0:"
    INDEX 01 00:44:54
  TRACK 51 AUDIO
    TITLE "12:cjc123_7487"
    INDEX 01 00:45:33
  TRACK 52 AUDIO
    TITLE "0:"
    INDEX 01 00:46:41
  TRACK 53 AUDIO
    TITLE "12:cjc123_7488"
    INDEX 01 00:47:23
  TRACK 54 AUDIO
    TITLE "0:"
    INDEX 01 00:48:18
  TRACK 55 AUDIO
    TITLE "12:cjc123_7489"
    INDEX 01 00:48:69
  TRACK 56 AUDIO
    TITLE "0:"
    INDEX 01 00:50:07
  TRACK 57 AUDIO
    TITLE "12:cjc123_7490"
    INDEX 01 00:50:68
  TRACK 58 AUDIO
    TITLE "0:"
    INDEX 01 00:51:62
  TRACK 59 AUDIO
    TITLE "12:cjc123_7491"
    INDEX 01 00:52:37
  TRACK 60 AUDIO
    TITLE "0:"
    INDEX 01 00:53:47
  TRACK 61 AUDIO
    TITLE "12:cjc123_7492"
    INDEX 01 00:54:19
  TRACK 62 AUDIO
    TITLE "0:"
    INDEX 01 00:55:06
  TRACK 63 AUDIO
    TITLE "12:cjc123_7493"
    INDEX 01 00:55:61
  TRACK 64 AUDIO
    TITLE "0:"
    INDEX 01 00:56:57
  TRACK 65 AUDIO
    TITLE "12:cjc123_7494"
    INDEX 01 00:57:27
  TRACK 66 AUDIO
    TITLE "0:"
    INDEX 01 00:58:26
  TRACK 67 AUDIO
    TITLE "12:cjc123_7495"
    INDEX 01 00:59:00
  TRACK 68 AUDIO
    TITLE "0:"
    INDEX 01 00:59:69
  TRACK 69 AUDIO
    TITLE "12:cjc123_7496"
    INDEX 01 01:00:51
  TRACK 70 AUDIO
    TITLE "0:"
    INDEX 01 01:01:60
  TRACK 71 AUDIO
    TITLE "12:cjc123_7497"
    INDEX 01 01:02:34
  TRACK 72 AUDIO
    TITLE "0:"
    INDEX 01 01:03:43
  TRACK 73 AUDIO
    TITLE "12:cjc123_7498"
    INDEX 01 01:04:13
  TRACK 74 AUDIO
    TITLE "0:"
    INDEX 01 01:05:11
  TRACK 75 AUDIO
    TITLE "12:cjc123_7499"
    INDEX 01 01:05:68
  TRACK 76 AUDIO
    TITLE "0:"
    INDEX 01 01:06:73
  TRACK 77 AUDIO
    TITLE "12:cjc123_7500"
    INDEX 01 01:07:47
  TRACK 78 AUDIO
    TITLE "0:"
    INDEX 01 01:08:54
  TRACK 79 AUDIO
    TITLE "12:cjc123_7501"
    INDEX 01 01:09:28
  TRACK 80 AUDIO
    TITLE "0:"
    INDEX 01 01:10:41
  TRACK 81 AUDIO
    TITLE "12:cjc123_7502"
    INDEX 01 01:11:15
  TRACK 82 AUDIO
    TITLE "0:"
    INDEX 01 01:12:23
